<svg xmlns="http://www.w3.org/2000/svg" xml:space="preserve" viewBox="0 0 146 80">
  <path fill="#fff" fill-rule="evenodd" d="M52.2 29.2c2.5 0 4.6-2.1 4.6-4.6s-2-4.6-4.6-4.6a4.7 4.7 0 0 0-4.6 4.6c0 2.6 2 4.6 4.6 4.6zm-32 10.9a4 4 0 0 1-2.1-.6 4.1 4.1 0 0 1-1.4-5.7l7-11.6c1.2-2 3.7-2.6 5.7-1.4 2 1.2 2.6 3.7 1.4 5.7l-7 11.6c-.8 1.3-2.2 2-3.6 2zm13.7-2c-.7 0-1.4-.2-2.1-.6a4.1 4.1 0 0 1-1.4-5.7l2.5-4.2c1.2-2 3.7-2.6 5.7-1.4 2 1.2 2.6 3.7 1.4 5.7l-2.5 4.2a3.6 3.6 0 0 1-3.6 2zm15.7-.9L37 58.2a4 4 0 0 1-5.6 1.3 4.1 4.1 0 0 1-1.5-5.6l12.6-21a4 4 0 0 1 5.6-1.3 4.2 4.2 0 0 1 1.5 5.6zm25.6 4.3c-.6 0-1.1-.5-1.1-1.1v-4.3c0-1.5-.7-2.6-2.2-2.6-1.6 0-2.4 1.2-2.4 2.6v4.4c0 .6-.5 1.1-1.1 1.1-.6 0-1.1-.5-1.1-1.1v-4.3c0-1.5-.7-2.6-2.2-2.6-1.6 0-2.4 1.2-2.4 2.6v4.3c0 .6-.5 1.1-1.1 1.1-.6 0-1.1-.5-1.1-1.1v-7.7c0-.6.5-1.1 1.1-1.1.6 0 1.1.5 1.1 1.1v.5c.6-.9 1.7-1.6 2.9-1.6 1.5 0 2.6.7 3.2 1.9a4 4 0 0 1 3.5-1.9c2.7 0 3.8 1.8 3.8 4.4v4.4c.2.5-.3 1-.9 1zm7.8.1c-2.8 0-5-2.2-5-5s2.2-5 5-5 5 2.2 5 5-2.2 5-5 5zm0-8.1c-1.8 0-2.9 1.4-2.9 3.1s1.2 3.1 2.9 3.1c1.8 0 2.9-1.4 2.9-3.1 0-1.7-1.1-3.1-2.9-3.1zm12.3.2h-1.8v6.8c0 .6-.5 1-1.1 1-.6 0-1.1-.5-1.1-1v-6.8h-1.6c-.5 0-.9-.4-.9-.9s.4-.9.9-.9h1.6v-3.2c0-.6.5-1 1.1-1 .6 0 1.1.5 1.1 1v3.2h1.8c.5 0 .9.4.9.9s-.4.9-.9.9zm3.3-4.4c-.7 0-1.2-.5-1.2-1.2s.5-1.2 1.2-1.2 1.2.5 1.2 1.2-.6 1.2-1.2 1.2zm0 12.2c-.6 0-1.1-.5-1.1-1.1v-7.7c0-.6.5-1.1 1.1-1.1.6 0 1.1.5 1.1 1.1v7.7c0 .6-.5 1.1-1.1 1.1zm8.1.1c-2.8 0-5-2.2-5-5s2.2-5 5-5 5 2.2 5 5-2.3 5-5 5zm0-8.1c-1.8 0-2.9 1.4-2.9 3.1s1.2 3.1 2.9 3.1c1.8 0 2.9-1.4 2.9-3.1 0-1.7-1.2-3.1-2.9-3.1zm14.7 8c-.6 0-1.1-.5-1.1-1.1v-4.5c0-1.4-1-2.4-2.5-2.4s-2.5 1.1-2.5 2.4v4.5c0 .6-.5 1.1-1.1 1.1-.6 0-1.1-.5-1.1-1.1v-4.3c0-2.5 2.1-4.6 4.6-4.6 2.6 0 4.6 2 4.6 4.6v4.3c.2.6-.3 1.1-.9 1.1zM58 55.7h-6.8c.1 1.5 1.3 2.6 2.9 2.6a4 4 0 0 0 2.8-1.2l.5-.2c.3 0 .5.1.7.3l.2.5c0 .2-.1.5-.3.7-.9 1-2.5 1.6-4 1.6a5 5 0 0 1-5-5c0-2.8 2.2-5 5-5s4.8 2.1 4.8 5c-.1.5-.4.7-.8.7zm-4.1-3.8c-1.5 0-2.5 1-2.7 2.4h5.4c-.2-1.4-1.2-2.4-2.7-2.4zm7.8 8.1c-.6 0-1.1-.5-1.1-1.1V46.2c0-.6.5-1.1 1.1-1.1.6 0 1.1.5 1.1 1.1V59c-.1.5-.5 1-1.1 1zm11.8-4.3h-6.8c.1 1.5 1.3 2.6 2.9 2.6a4 4 0 0 0 2.8-1.2l.5-.2c.3 0 .5.1.7.3l.2.5c0 .2-.1.5-.3.7-.9 1-2.5 1.6-4 1.6a5 5 0 0 1-5-5 5 5 0 0 1 5-5c2.8 0 4.8 2.1 4.8 5 0 .5-.4.7-.8.7zm-4.1-3.8c-1.5 0-2.5 1-2.7 2.4h5.4c-.2-1.4-1.2-2.4-2.7-2.4zM90.5 60c-.6 0-1.1-.5-1.1-1.1v-4.3c0-1.5-.7-2.6-2.2-2.6-1.6 0-2.4 1.2-2.4 2.6V59c0 .6-.5 1.1-1.1 1.1-.6 0-1.1-.5-1.1-1.1v-4.3c0-1.5-.7-2.6-2.2-2.6-1.6 0-2.4 1.2-2.4 2.6V59c0 .6-.5 1.1-1.1 1.1-.6 0-1.1-.5-1.1-1.1v-7.7c0-.6.5-1.1 1.1-1.1.6 0 1.1.5 1.1 1.1v.5c.6-.9 1.7-1.6 2.9-1.6 1.5 0 2.6.7 3.2 1.9a4 4 0 0 1 3.5-1.9c2.7 0 3.8 1.8 3.8 4.4V59c.2.5-.3 1-.9 1zm11.5-4.3h-6.8c.1 1.5 1.3 2.6 2.9 2.6a4 4 0 0 0 2.8-1.2l.5-.2c.3 0 .5.1.7.3l.2.5c0 .2-.1.5-.3.7-.9 1-2.5 1.6-4 1.6a5 5 0 0 1-5-5 5 5 0 0 1 5-5c2.8 0 4.8 2.1 4.8 5 0 .5-.4.7-.8.7zm-4.1-3.8c-1.5 0-2.5 1-2.7 2.4h5.4c-.2-1.4-1.2-2.4-2.7-2.4zm14.5 8.1c-.6 0-1.1-.5-1.1-1.1v-4.5c0-1.4-1-2.4-2.5-2.4s-2.5 1.1-2.5 2.4v4.5c0 .6-.5 1.1-1.1 1.1-.6 0-1.1-.5-1.1-1.1v-4.3c0-2.5 2.1-4.6 4.6-4.6s4.6 2 4.6 4.6v4.3a1 1 0 0 1-.9 1.1zm8.3-7.9h-1.8v6.8c0 .6-.5 1.1-1.1 1.1s-1.1-.5-1.1-1.1v-6.8h-1.6c-.5 0-.9-.4-.9-.9s.4-.9.9-.9h1.6v-3.2c0-.6.5-1.1 1.1-1.1s1.1.5 1.1 1.1v3.2h1.8c.5 0 .9.4.9.9s-.4.9-.9.9zm5.2 8c-1.1 0-2.5-.3-3.5-1-.3-.2-.5-.5-.5-.8l.1-.3c.1-.3.4-.5.7-.5l.4.1c.8.5 1.8.8 2.7.8 1.1 0 2.2-.3 2.2-1.1 0-.7-.6-.9-2.8-1.7-1.8-.6-2.8-1.5-2.8-2.8 0-1.6 1.6-2.6 3.7-2.6 1.4 0 2.4.3 3.3.7.4.2.6.5.6.8l-.1.3c-.1.3-.5.6-.8.6l-.3-.1c-.8-.4-1.6-.6-2.5-.6-1.2 0-1.9.3-1.9 1s.6.9 2.2 1.4c2 .7 3.4 1.3 3.4 3 0 1.5-1.5 2.8-4.1 2.8z" clip-rule="evenodd"/>
</svg>
